<mxfile host="65bd71144e">
    <diagram id="v2Swu2_-06ok6O4cKLuq" name="Page-1">
        <mxGraphModel dx="746" dy="568" grid="1" gridSize="10" guides="1" tooltips="1" connect="1" arrows="1" fold="1" page="1" pageScale="1" pageWidth="827" pageHeight="1169" math="0" shadow="0">
            <root>
                <mxCell id="0"/>
                <mxCell id="1" parent="0"/>
                <mxCell id="2" value="&lt;p style=&quot;margin:0px;margin-top:4px;text-align:center;text-decoration:underline;&quot;&gt;&lt;b&gt;Punto&lt;/b&gt;&lt;/p&gt;&lt;hr&gt;&lt;p style=&quot;margin:0px;margin-left:8px;&quot;&gt;X = 1 número&lt;br&gt;Y = 1 número&lt;br&gt;Z = 1 número&lt;/p&gt;" style="verticalAlign=top;align=left;overflow=fill;fontSize=12;fontFamily=Helvetica;html=1;" vertex="1" parent="1">
                    <mxGeometry x="100" y="250" width="160" height="90" as="geometry"/>
                </mxCell>
                <mxCell id="8" value="&lt;p style=&quot;margin:0px;margin-top:4px;text-align:center;text-decoration:underline;&quot;&gt;&lt;b&gt;Línea&lt;/b&gt;&lt;/p&gt;" style="verticalAlign=top;align=left;overflow=fill;fontSize=12;fontFamily=Helvetica;html=1;" vertex="1" parent="1">
                    <mxGeometry x="300" y="250" width="160" height="90" as="geometry"/>
                </mxCell>
                <mxCell id="9" value="&lt;p style=&quot;margin:0px;margin-top:4px;text-align:center;text-decoration:underline;&quot;&gt;&lt;b&gt;Área&lt;/b&gt;&lt;/p&gt;" style="verticalAlign=top;align=left;overflow=fill;fontSize=12;fontFamily=Helvetica;html=1;" vertex="1" parent="1">
                    <mxGeometry x="510" y="250" width="160" height="90" as="geometry"/>
                </mxCell>
                <mxCell id="10" value="" style="strokeWidth=2;html=1;shape=mxgraph.flowchart.annotation_2;align=left;labelPosition=right;pointerEvents=1;direction=south;" vertex="1" parent="1">
                    <mxGeometry x="180" y="115" width="390" height="135" as="geometry"/>
                </mxCell>
                <mxCell id="11" value="" style="html=1;verticalAlign=bottom;endArrow=block;exitX=1;exitY=0.5;exitDx=0;exitDy=0;exitPerimeter=0;" edge="1" parent="1" source="10">
                    <mxGeometry width="80" relative="1" as="geometry">
                        <mxPoint x="340" y="290" as="sourcePoint"/>
                        <mxPoint x="375" y="80" as="targetPoint"/>
                    </mxGeometry>
                </mxCell>
                <mxCell id="13" value="Entidad geográfica" style="swimlane;fontStyle=0;childLayout=stackLayout;horizontal=1;startSize=26;fillColor=none;horizontalStack=0;resizeParent=1;resizeParentMax=0;resizeLast=0;collapsible=1;marginBottom=0;" vertex="1" parent="1">
                    <mxGeometry x="310" width="140" height="78" as="geometry"/>
                </mxCell>
                <mxCell id="14" value="Código: 1 Texto" style="text;strokeColor=none;fillColor=none;align=left;verticalAlign=top;spacingLeft=4;spacingRight=4;overflow=hidden;rotatable=0;points=[[0,0.5],[1,0.5]];portConstraint=eastwest;" vertex="1" parent="13">
                    <mxGeometry y="26" width="140" height="26" as="geometry"/>
                </mxCell>
                <mxCell id="15" value="Nombre: 1 Texto" style="text;strokeColor=none;fillColor=none;align=left;verticalAlign=top;spacingLeft=4;spacingRight=4;overflow=hidden;rotatable=0;points=[[0,0.5],[1,0.5]];portConstraint=eastwest;" vertex="1" parent="13">
                    <mxGeometry y="52" width="140" height="26" as="geometry"/>
                </mxCell>
                <mxCell id="17" value="" style="endArrow=diamondThin;endFill=1;endSize=24;html=1;exitX=0.438;exitY=1;exitDx=0;exitDy=0;exitPerimeter=0;entryX=1.667;entryY=0.462;entryDx=0;entryDy=0;entryPerimeter=0;" edge="1" parent="1" source="2" target="10">
                    <mxGeometry width="160" relative="1" as="geometry">
                        <mxPoint x="190" y="440" as="sourcePoint"/>
                        <mxPoint x="350" y="440" as="targetPoint"/>
                        <Array as="points">
                            <mxPoint x="170" y="440"/>
                            <mxPoint x="390" y="440"/>
                        </Array>
                    </mxGeometry>
                </mxCell>
                <mxCell id="18" value="" style="endArrow=diamondThin;endFill=1;endSize=24;html=1;entryX=0.5;entryY=1;entryDx=0;entryDy=0;exitX=0.138;exitY=1.036;exitDx=0;exitDy=0;exitPerimeter=0;" edge="1" parent="1" source="2" target="9">
                    <mxGeometry width="160" relative="1" as="geometry">
                        <mxPoint x="180" y="350" as="sourcePoint"/>
                        <mxPoint x="399.81999999999994" y="350.0450000000001" as="targetPoint"/>
                        <Array as="points">
                            <mxPoint x="120" y="460"/>
                            <mxPoint x="590" y="460"/>
                        </Array>
                    </mxGeometry>
                </mxCell>
                <mxCell id="19" value="3..*" style="text;html=1;align=center;verticalAlign=middle;resizable=0;points=[];autosize=1;strokeColor=none;fillColor=none;" vertex="1" parent="1">
                    <mxGeometry x="80" y="345" width="40" height="30" as="geometry"/>
                </mxCell>
                <mxCell id="20" value="3..*" style="text;html=1;align=center;verticalAlign=middle;resizable=0;points=[];autosize=1;strokeColor=none;fillColor=none;" vertex="1" parent="1">
                    <mxGeometry x="175" y="345" width="40" height="30" as="geometry"/>
                </mxCell>
                <mxCell id="21" value="1..*" style="text;html=1;align=center;verticalAlign=middle;resizable=0;points=[];autosize=1;strokeColor=none;fillColor=none;" vertex="1" parent="1">
                    <mxGeometry x="394" y="345" width="40" height="30" as="geometry"/>
                </mxCell>
                <mxCell id="22" value="1..*" style="text;html=1;align=center;verticalAlign=middle;resizable=0;points=[];autosize=1;strokeColor=none;fillColor=none;" vertex="1" parent="1">
                    <mxGeometry x="600" y="345" width="40" height="30" as="geometry"/>
                </mxCell>
            </root>
        </mxGraphModel>
    </diagram>
</mxfile>